# xmcd
#
# Track frame offsets:
#	150
#	24797
#	49337
#	67030
#	85960
#	105042
#
# Disc length: 1748 seconds
#
# Revision: 1
# Processed by: cddbd v1.4PL0 Copyright (c) Steve Scherf et al.
# Submitted via: audiograbber 1.82.01
#
DISCID=3f06d206
DTITLE=Hany El Omari - Molfet Lel Nazar
DYEAR=1900
DGENRE=
TTITLE0=Molfet Lel Nazar
TTITLE1=Bahebbak Habibi
TTITLE2=Raje3 Ya Sabieh
TTITLE3=Te3jibni Taletak
TTITLE4=Raje3 ya Sabieh
TTITLE5=El Hak Moch 3aleyki
EXTD=
EXTT0=
EXTT1=
EXTT2=
EXTT3=
EXTT4=
EXTT5=
PLAYORDER=
